<?xml version="1.0" encoding="UTF-8" standalone="no"?>
<!-- Generator: Adobe Illustrator 22.0.0, SVG Export Plug-In . SVG Version: 6.00 Build 0)  -->

<svg
   version="1.1"
   id="Ebene_1"
   x="0px"
   y="0px"
   viewBox="0 0 457.8 142.3"
   xml:space="preserve"
   sodipodi:docname="dn42-full.svg"
   width="457.79999"
   height="142.3"
   inkscape:version="1.4.4 (dcaf3e7d9e, 2026-05-05)"
   xmlns:inkscape="http://www.inkscape.org/namespaces/inkscape"
   xmlns:sodipodi="http://sodipodi.sourceforge.net/DTD/sodipodi-0.dtd"
   xmlns="http://www.w3.org/2000/svg"
   xmlns:svg="http://www.w3.org/2000/svg"><defs
   id="defs9" /><sodipodi:namedview
   id="namedview9"
   pagecolor="#505050"
   bordercolor="#eeeeee"
   borderopacity="1"
   inkscape:showpageshadow="0"
   inkscape:pageopacity="0"
   inkscape:pagecheckerboard="0"
   inkscape:deskcolor="#505050"
   inkscape:zoom="0.73524169"
   inkscape:cx="229.85639"
   inkscape:cy="71.405091"
   inkscape:window-width="1536"
   inkscape:window-height="827"
   inkscape:window-x="0"
   inkscape:window-y="0"
   inkscape:window-maximized="1"
   inkscape:current-layer="Ebene_1" />
<style
   type="text/css"
   id="style1">
	.st0{fill:#3C3C3B;}
	.st1{fill:#575756;}
	.st2{fill:#706F6F;}
	.st3{fill:#9D9D9C;}
	.st4{fill:#878787;}
</style>
<polygon
   points="310.1,436.1 326.2,464 358.4,464 374.5,436.1 358.4,408.2 326.2,408.2 "
   id="polygon1"
   transform="translate(-68,-350.2)" />
<polygon
   class="st0"
   points="360.4,464.6 376.5,492.5 408.7,492.5 424.8,464.6 408.7,436.7 376.5,436.7 "
   id="polygon2"
   transform="translate(-68,-350.2)" />
<polygon
   class="st1"
   points="360.4,406.9 376.5,434.8 408.7,434.8 424.8,406.9 408.7,379 376.5,379 "
   id="polygon3"
   transform="translate(-68,-350.2)" />
<polygon
   class="st2"
   points="410.5,436.1 426.6,464 458.8,464 474.9,436.1 458.8,408.2 426.6,408.2 "
   id="polygon4"
   transform="translate(-68,-350.2)" />
<polygon
   class="st3"
   points="461.4,464.6 477.5,492.5 509.7,492.5 525.8,464.6 509.7,436.7 477.5,436.7 "
   id="polygon5"
   transform="translate(-68,-350.2)" />
<polygon
   class="st4"
   points="410.5,378.1 426.6,405.9 458.8,405.9 474.9,378.1 458.8,350.2 426.6,350.2 "
   id="polygon6"
   transform="translate(-68,-350.2)" />
<g
   id="g9"
   transform="translate(-68,-350.2)">
	<path
   d="m 106.7,382.1 h 10.8 v 82.8 h -23 c -8.1,0 -14.5,-2.5 -19.3,-7.6 -4.8,-5.1 -7.2,-12 -7.2,-20.5 0,-8 2.5,-14.6 7.6,-19.8 5,-5.2 11.5,-7.8 19.3,-7.8 3.6,0 7.6,0.8 11.9,2.3 v -29.4 z m 0,73.6 v -34.6 c -3.4,-1.7 -6.8,-2.5 -10.2,-2.5 -5.4,0 -9.7,1.8 -12.8,5.3 -3.2,3.5 -4.8,8.3 -4.8,14.2 0,5.6 1.4,9.9 4.1,13 1.7,1.8 3.4,3 5.3,3.7 1.9,0.6 5.2,0.9 10,0.9 z"
   id="path6" />
	<path
   d="m 143,410.4 v 6.9 c 4.8,-5.3 10.3,-8 16.4,-8 3.4,0 6.6,0.9 9.5,2.6 2.9,1.8 5.1,4.2 6.7,7.2 1.5,3.1 2.3,7.9 2.3,14.5 v 31.2 H 167 v -31.1 c 0,-5.6 -0.9,-9.6 -2.5,-11.9 -1.7,-2.4 -4.5,-3.6 -8.5,-3.6 -5.1,0 -9.4,2.5 -13,7.6 v 38.9 h -11 v -54.5 h 11 z"
   id="path7" />
	<path
   d="m 228.3,381 h 4.9 v 46.5 h 9.2 v 10.1 h -9.2 v 27.3 h -11.6 v -27.3 h -35 v -5.1 z m -6.7,46.5 v -24 l -19.2,24 z"
   id="path8" />
	<path
   d="m 270.9,453.5 h 31.5 v 11.4 H 250 v -0.8 l 5,-5.9 c 7.8,-9.6 14,-17.8 18.6,-24.5 4.6,-6.7 7.6,-11.8 9,-15.2 1.4,-3.4 2.1,-6.8 2.1,-10.2 0,-4.7 -1.3,-8.4 -4,-11.2 -2.6,-2.8 -6.2,-4.2 -10.5,-4.2 -3.3,0 -6.6,1 -9.8,2.9 -3.2,2 -6.1,4.7 -8.7,8.3 V 389 c 6.4,-5.3 13.1,-7.9 19.9,-7.9 7.2,0 13.2,2.4 17.9,7.2 4.7,4.8 7,10.9 7,18.4 0,3.3 -0.6,6.9 -1.7,10.6 -1.2,3.8 -3.2,8.1 -6.2,13 -3,4.9 -8,11.6 -15.1,20.1 z"
   id="path9" />
</g>
</svg>
