<?xml version="1.0" encoding="UTF-8" standalone="no"?>
<!-- Generator: Adobe Illustrator 22.0.0, SVG Export Plug-In . SVG Version: 6.00 Build 0)  -->

<svg
   version="1.1"
   id="Ebene_1"
   x="0px"
   y="0px"
   viewBox="0 0 215.7 142.3"
   xml:space="preserve"
   sodipodi:docname="dn42.svg"
   width="215.7"
   height="142.3"
   inkscape:version="1.4.4 (dcaf3e7d9e, 2026-05-05)"
   xmlns:inkscape="http://www.inkscape.org/namespaces/inkscape"
   xmlns:sodipodi="http://sodipodi.sourceforge.net/DTD/sodipodi-0.dtd"
   xmlns="http://www.w3.org/2000/svg"
   xmlns:svg="http://www.w3.org/2000/svg"><defs
   id="defs9" /><sodipodi:namedview
   id="namedview9"
   pagecolor="#505050"
   bordercolor="#eeeeee"
   borderopacity="1"
   inkscape:showpageshadow="0"
   inkscape:pageopacity="0"
   inkscape:pagecheckerboard="0"
   inkscape:deskcolor="#505050"
   inkscape:zoom="0.99180422"
   inkscape:cx="-13.107426"
   inkscape:cy="71.082577"
   inkscape:window-width="1920"
   inkscape:window-height="1043"
   inkscape:window-x="0"
   inkscape:window-y="0"
   inkscape:window-maximized="1"
   inkscape:current-layer="Ebene_1" />
<style
   type="text/css"
   id="style1">
	.st0{fill:#3C3C3B;}
	.st1{fill:#575756;}
	.st2{fill:#706F6F;}
	.st3{fill:#9D9D9C;}
	.st4{fill:#878787;}
</style>
<polygon
   points="310.1,436.1 326.2,464 358.4,464 374.5,436.1 358.4,408.2 326.2,408.2 "
   id="polygon1"
   transform="translate(-310.1,-350.2)" />
<polygon
   class="st0"
   points="360.4,464.6 376.5,492.5 408.7,492.5 424.8,464.6 408.7,436.7 376.5,436.7 "
   id="polygon2"
   transform="translate(-310.1,-350.2)" />
<polygon
   class="st1"
   points="360.4,406.9 376.5,434.8 408.7,434.8 424.8,406.9 408.7,379 376.5,379 "
   id="polygon3"
   transform="translate(-310.1,-350.2)" />
<polygon
   class="st2"
   points="410.5,436.1 426.6,464 458.8,464 474.9,436.1 458.8,408.2 426.6,408.2 "
   id="polygon4"
   transform="translate(-310.1,-350.2)" />
<polygon
   class="st3"
   points="461.4,464.6 477.5,492.5 509.7,492.5 525.8,464.6 509.7,436.7 477.5,436.7 "
   id="polygon5"
   transform="translate(-310.1,-350.2)" />
<polygon
   class="st4"
   points="410.5,378.1 426.6,405.9 458.8,405.9 474.9,378.1 458.8,350.2 426.6,350.2 "
   id="polygon6"
   transform="translate(-310.1,-350.2)" />

</svg>
